<?xml version="1.0" encoding="UTF-8"?>
<svg width="293px" height="24px" viewBox="0 0 293 24" version="1.1" xmlns="http://www.w3.org/2000/svg" xmlns:xlink="http://www.w3.org/1999/xlink">
    <title>Content/Logo/White</title>
    <g id="Style-Guide-" stroke="none" stroke-width="1" fill="none" fill-rule="evenodd">
        <g id="Style-Guide" transform="translate(-135.000000, -217.000000)" fill="#FFFFFF">
            <g id="Text" transform="translate(135.000000, 209.000000)">
                <g id="Content/Logo/White" transform="translate(0.000000, 8.000000)">
                    <path d="M52.9836878,1.23881624 L52.9836878,22.7653131 C52.9836878,23.2278045 52.6074478,23.6035788 52.1443831,23.6035788 L49.051773,23.6035788 C48.7912992,23.6035788 48.5432289,23.4838266 48.3819832,23.2732278 L37.3841986,8.85340674 L37.3841986,22.7653131 C37.3841986,23.2278045 37.0079586,23.6035788 36.544894,23.6035788 L33.1794065,23.6035788 C32.7163419,23.6035788 32.3401019,23.2278045 32.3401019,22.7653131 L32.3401019,1.23881624 C32.3401019,0.776324845 32.7163419,0.400550585 33.1794065,0.400550585 L36.6358531,0.400550585 C36.8963269,0.400550585 37.1443973,0.524432209 37.305643,0.730901583 L47.9395911,14.6882312 L47.9395911,1.23881624 C47.9395911,0.776324845 48.3158311,0.400550585 48.7788957,0.400550585 L52.1443831,0.400550585 C52.6074478,0.400550585 52.9836878,0.776324845 52.9836878,1.23881624 Z M120.702753,19.0612526 L108.931816,19.0612526 L108.931816,14.1885754 L119.044816,14.1885754 C119.507881,14.1885754 119.884121,13.8128011 119.884121,13.3461803 L119.884121,10.4845148 C119.884121,10.0220234 119.507881,9.64624914 119.044816,9.64624914 L108.931816,9.64624914 L108.931816,4.93874742 L120.537373,4.93874742 C121.000437,4.93874742 121.376677,4.56297316 121.376677,4.10048176 L121.376677,1.23881624 C121.376677,0.776324845 121.000437,0.400550585 120.537373,0.400550585 L104.693948,0.400550585 C104.230883,0.400550585 103.854643,0.776324845 103.854643,1.23881624 L103.854643,22.7653131 C103.854643,23.2278045 104.230883,23.6035788 104.693948,23.6035788 L120.702753,23.6035788 C121.165818,23.6035788 121.542091,23.2278045 121.542091,22.7653131 L121.542091,19.9036476 C121.546192,19.4370268 121.165818,19.0612526 120.702753,19.0612526 Z M189.256988,0.400550585 L185.577279,0.400550585 C185.225846,0.400550585 184.911623,0.619408121 184.787588,0.949759119 L178.91659,16.7446662 L173.045592,0.949759119 C172.921557,0.619408121 172.607335,0.400550585 172.255902,0.400550585 L168.443888,0.400550585 C167.848519,0.400550585 167.443338,1.00344116 167.662466,1.55264969 L176.378004,23.2443221 C176.506174,23.5622849 176.816261,23.7728837 177.159425,23.7728837 L180.537316,23.7728837 C180.88048,23.7728837 181.190568,23.5622849 181.318738,23.2443221 L190.034275,1.55264969 C190.261673,0.999311769 189.852357,0.400550585 189.256988,0.400550585 Z M258.323903,0.400550585 L254.896397,0.400550585 C254.433333,0.400550585 254.057093,0.776324845 254.057093,1.23881624 L254.057093,13.6930489 C254.057093,17.3723331 252.163489,19.2635926 249.046072,19.2635926 C245.924521,19.2635926 244.035052,17.3062629 244.035052,13.5278734 L244.035052,1.23881624 C244.035052,0.776324845 243.658812,0.400550585 243.195747,0.400550585 L239.768242,0.400550585 C239.305177,0.400550585 238.928937,0.776324845 238.928937,1.23881624 L238.928937,13.6600138 C238.928937,20.4900206 242.745086,23.9710943 248.984055,23.9710943 C255.223023,23.9710943 259.175611,20.5230557 259.175611,13.4948383 L259.175611,1.23881624 C259.167342,0.776324845 258.786967,0.400550585 258.323903,0.400550585 Z M149.090268,0.743289745 C148.957964,0.433585685 148.65201,0.231245699 148.317115,0.231245699 L144.715961,0.231245699 C144.376931,0.231245699 144.075113,0.433585685 143.942808,0.743289745 L134.702189,22.4349621 C134.466522,22.9883001 134.871703,23.6035788 135.475341,23.6035788 L138.849098,23.6035788 C139.192262,23.6035788 139.498215,23.3971094 139.626385,23.0791466 L140.370596,21.2539573 L143.368112,13.8912595 L143.359843,13.8912595 L144.401738,11.3558156 L146.448319,6.36751549 L149.536794,13.8912595 L149.528525,13.8912595 L152.526042,21.2539573 L153.270253,23.0791466 C153.398422,23.3971094 153.70851,23.6035788 154.04754,23.6035788 L157.5536,23.6035788 C158.157238,23.6035788 158.56242,22.9883001 158.326753,22.4349621 L149.090268,0.743289745 Z M16.8481098,19.0612526 L5.07717273,19.0612526 L5.07717273,14.1885754 L15.1860386,14.1885754 C15.6532378,14.1885754 16.0294778,13.8128011 16.0294778,13.3461803 L16.0294778,10.4886442 C16.0294778,10.0220234 15.6532378,9.64624914 15.1860386,9.64624914 L5.07717273,9.64624914 L5.07717273,4.93874742 L16.6827296,4.93874742 C17.1499287,4.93874742 17.5261687,4.56297316 17.5261687,4.09635237 L17.5261687,1.23881624 C17.5261687,0.772195458 17.1499287,0.396421198 16.6827296,0.396421198 L0.843439118,0.396421198 C0.376239999,0.400550585 0,0.776324845 0,1.24294563 L0,22.7653131 C0,23.2319339 0.376239999,23.6077082 0.843439118,23.6077082 L16.8481098,23.6077082 C17.315309,23.6077082 17.691549,23.2319339 17.691549,22.7653131 L17.691549,19.907777 C17.691549,19.4411562 17.315309,19.0612526 16.8481098,19.0612526 Z M89.2060903,11.9339298 L89.2060903,12 C89.2060903,18.5285616 84.1619936,23.6035788 76.8604569,23.6035788 L68.6369255,23.6035788 C68.1738609,23.6035788 67.7976209,23.2278045 67.7976209,22.7653131 L67.7976209,1.23881624 C67.7976209,0.776324845 68.1738609,0.400550585 68.6369255,0.400550585 L76.8604569,0.400550585 C84.1619936,0.400550585 89.2060903,5.4053682 89.2060903,11.9339298 Z M83.8601747,12 C83.8601747,7.89125946 81.040442,5.00481762 76.8563224,5.00481762 L72.9078697,5.00481762 L72.9078697,18.9951824 L76.8563224,18.9951824 C81.0363074,18.9951824 83.8601747,16.1789401 83.8601747,12.0660702 L83.8601747,12 Z M225.380163,11.9339298 L225.380163,12 C225.380163,18.5946318 220.170686,24 213.001453,24 C205.832221,24 200.688896,18.6648314 200.688896,12.0660702 L200.688896,12 C200.688896,5.4053682 205.898373,0 213.067606,0 C220.236838,0 225.380163,5.339298 225.380163,11.9339298 Z M220.034247,12.0041294 C220.034247,8.02339986 217.115286,4.71163111 212.997319,4.71163111 C208.883486,4.71163111 206.026543,7.96145905 206.026543,11.9380592 L206.026543,12.0041294 C206.026543,15.9807295 208.945504,19.2966277 213.063471,19.2966277 C217.177304,19.2966277 220.034247,16.0467997 220.034247,12.0701996 L220.034247,12.0041294 Z M288.592617,16.1541638 L292.793275,22.2904336 C293.173649,22.8479009 292.776737,23.6035788 292.098678,23.6035788 L288.166763,23.6035788 C287.885617,23.6035788 287.625143,23.4631796 287.468032,23.2319339 L282.738157,16.1789401 L278.723553,16.1789401 L278.723553,22.7653131 C278.723553,23.2278045 278.347313,23.6035788 277.884248,23.6035788 L274.452608,23.6035788 C273.989544,23.6035788 273.613304,23.2278045 273.613304,22.7653131 L273.613304,1.23881624 C273.613304,0.776324845 273.989544,0.400550585 274.452608,0.400550585 L284.234848,0.400550585 C287.19102,0.400550585 289.477401,1.23055747 291.007168,2.75430145 C292.301269,4.04679972 293,5.87198899 293,8.05643496 L293,8.12250516 C293,11.4714384 291.383408,13.7095664 288.927512,14.9277357 C288.464447,15.154852 288.303202,15.7288369 288.592617,16.1541638 Z M287.819465,8.32071576 C287.819465,6.1321404 286.293832,5.00481762 283.800725,5.00481762 L278.723553,5.00481762 L278.723553,11.669649 L283.899953,11.669649 C286.388926,11.669649 287.81533,10.3441156 287.81533,8.38678596 L287.81533,8.32071576 L287.819465,8.32071576 Z" id="Shape"></path>
                </g>
            </g>
        </g>
    </g>
</svg>